<svg width="271" height="312" viewBox="0 0 271 312" fill="none" xmlns="http://www.w3.org/2000/svg">
<path d="M153.704 308.614C158.504 309.414 167.604 310.414 173.904 310.914C194.904 312.514 197.304 312.414 230.404 308.014C244.304 306.414 244.504 306.314 258.804 304.814C264.704 304.214 268.704 303.314 269.704 302.314C271.104 300.914 271.004 298.814 269.604 282.014C268.204 265.914 267.304 260.314 262.904 243.314C250.704 195.714 247.004 186.114 218.604 129.214C208.004 108.114 206.304 105.314 200.104 98.3136C197.204 95.1136 194.804 92.1136 194.804 91.7136C194.804 90.7136 177.504 75.8136 167.004 67.7136C153.104 57.0136 143.604 50.6136 137.304 47.7136C127.504 43.2136 119.704 39.8136 113.304 37.3136C93.7037 29.7136 88.7037 27.8136 88.0037 27.8136C86.9037 27.8136 60.5037 18.9136 48.3037 14.4136C42.8037 12.4136 34.5037 9.4136 29.8037 7.7136C25.1037 6.1136 19.7037 3.91361 17.8037 2.91361C15.9037 1.91361 12.2036 0.813611 9.60363 0.413611C5.20363 -0.286389 4.90368 -0.186389 3.90368 2.41361C2.50368 5.91361 0.303684 37.2136 0.403684 51.9136C0.603684 87.3136 4.10366 137.514 7.50366 153.314C10.2539 166.279 10.3028 166.413 21.2009 196.263L21.8037 197.914C34.0037 231.414 35.1037 233.514 43.7037 240.014C56.3037 249.514 59.9037 252.014 67.2037 255.814C71.2037 257.914 76.9037 261.414 79.9037 263.514C82.9037 265.614 89.7037 270.214 94.9037 273.714C100.104 277.214 105.704 281.014 107.404 282.114C109.104 283.314 114.504 287.014 119.404 290.414C141.304 305.514 144.404 307.114 153.704 308.614Z" fill="#2B9158"/>
</svg>
