<svg width="372" height="616" viewBox="0 0 372 616" fill="none" xmlns="http://www.w3.org/2000/svg">
<path d="M216.072 595.337C223.864 603.984 231.995 612.461 234.367 613.987C236.739 615.513 239.449 616.361 240.466 615.852C242.668 614.835 268.078 583.638 282.308 564.309C302.636 536.503 318.729 508.018 331.096 477.839C334.653 469.022 341.599 452.236 346.342 440.707C353.965 422.057 355.829 415.444 361.588 382.212C372.43 321.005 372.43 320.496 371.245 291.673C369.212 243.181 364.977 178.752 363.452 173.327C362.605 170.444 357.692 161.628 352.441 153.828C344.648 142.129 338.211 135.517 313.817 114.662C264.351 72.1054 233.859 50.0638 213.869 41.9254C176.601 26.8355 153.901 20.3926 89.8665 6.31994C61.0681 0.0465925 57.1718 -0.631607 54.4613 0.385693C51.9203 1.40299 48.5322 8.01546 35.9964 36.3303C25.1546 61.0846 23.2913 66.6798 20.4114 84.6521C17.1928 104.15 14.8212 117.545 12.6189 127.887C7.19805 152.472 0.760742 196.725 0.760742 208.763C0.760742 261.493 8.72263 308.288 24.6465 349.998C27.5263 357.458 30.2367 365.088 30.7449 366.953C32.6084 373.904 43.4501 394.42 50.3956 404.593C73.0956 437.486 85.462 453.932 101.047 472.243C123.239 498.354 194.219 574.821 198.623 577.534C200.486 578.551 208.279 586.69 216.072 595.337Z" fill="#2B9158"/>
</svg>
