<svg width="1184" height="2019" viewBox="0 0 1184 2019" fill="none" xmlns="http://www.w3.org/2000/svg">
<path d="M365 142.499C365 142.499 238 1.25006 238.5 0.499125C239 -0.251815 273.5 11.5 298.5 19.4991C323.5 27.4983 349 47.9991 349 47.9991L405.5 101.999C405.5 101.999 574.5 286.499 616.5 326.999L658.5 367.499L691.5 409.499C691.5 409.499 712.468 379.53 731 359.999C749.533 340.469 773.093 312.24 774.5 310.999C775.907 309.758 803.5 380.999 803.5 384.999C803.5 388.999 707.5 510.999 707.5 515.499C707.5 519.999 712 578.999 712 578.999L707.5 684.999L741 782.999C741 782.999 771.659 848.329 774 849.5C776.341 850.671 920 778 927.5 776C935 774 998 714.499 1002.5 707C1007 699.501 1033 649.499 1033 649.499L1067 633.999L1113.5 637.999C1113.5 637.999 1182.5 671.001 1183.5 675C1184.5 678.999 1161.5 717 1145 742C1128.5 767 1068 852.498 1058 866.499C1048 880.497 1045.5 882.998 1027.01 901.486L1027 901.499C1008.5 919.999 803.5 1037 798 1046.5C792.5 1056 805 1249.5 805 1249.5C805 1249.5 784.011 1410.98 777 1515C767.637 1653.93 761.424 1732.59 771 1871.5C775.458 1936.16 794 2008 789.5 2012.5C785 2017 707.522 2020.87 657 2018C589.101 2014.15 559.882 2016.66 492 2012.5C431.926 2008.82 335 2011.5 332 2008C329 2004.5 346.833 1964.5 400.5 1803.5C454.168 1642.5 536 1114.5 541.5 1097.5C546.898 1080.81 546.517 1080.5 536.573 1072.46L536 1072C525.5 1063.5 441 990.499 441 990.499L266.5 842.999L102.5 675.499C102.5 675.499 88.5 645.5 53.5002 573.499C18.5004 501.498 -0.500205 479 1.00018 477.999C2.50056 476.999 97.5002 542.499 97.5002 542.499C97.5002 542.499 156 599.999 178 620.499L178.091 620.584C200.021 641.018 207.537 648.022 234 664.499C260.5 680.999 317 723.499 317 723.499L434 787.499C567.32 843.799 579.5 832.499 579.5 832.499C579.5 832.499 583.5 836.999 585 800.999C586.5 764.999 582.5 710.499 582.5 710.499L579.5 650.499L576.5 598.999L568 542.499L549.5 456.999L542.5 433.499C542.5 433.499 538.198 420.297 535 411.999C525.831 388.206 506 353.499 506 353.499C506 353.499 494.5 332 480.5 306C466.5 280 452 258.499 452 258.499L410.5 198.999L365 142.499Z" fill="#6F3500"/>
</svg>
